<?xml version="1.0" encoding="UTF-8"?>
<svg id="Layer_2" data-name="Layer 2" xmlns="http://www.w3.org/2000/svg" viewBox="0 0 1045.39 582.83">
  <g id="Layer_1-2" data-name="Layer 1">
    <path d="m515.65,207.54c-2.84-2.67-6.66-3.94-10.15-5.69-3.48-1.74-6.95-4.36-7.8-8.17-.3-1.36-.24-2.81-.69-4.14-.44-1.33-1.66-2.58-3.04-2.39-.14,4.55-1.92,9.03-4.93,12.45-.67.76-1.43,1.49-2.38,1.84-3.47,1.29-6.51-2.94-7.05-6.6-.54-3.66.61-14.75-2.16-17.21-5.27-4.69-4.88-5.48-11-9-1.42-.82-8.89-2.2-10-1-1.52,1.65,1.11,7.8,3,9,5.18,3.28,10.73,6.88,11,13,.2,4.59-.77,7.35-5.31,8.03-4.55.69-9.35-2.54-10.4-7.01,2.19-.16,4.38-.31,6.56-.47-4.45-4.29-9.23-8.23-14.29-11.77-1.35-.94-2.79-1.88-4.42-2.06-1.1-.11-2.21.13-3.3.37-4.68,1.06-9.51,2.17-13.37,5.03-2.64,1.96-4.66,4.62-7.15,6.77-7.8,6.74-18.93,7.59-29.22,8.11-2.25-5.44-3.61-11.25-4.01-17.13-.06-.85-.09-1.77.35-2.5.72-1.21,2.34-1.45,3.74-1.56,6.98-.54,13.96-1.09,20.93-1.63,2.13-.17,5.04-1.8,3.84-3.55-1.9-1.25-3.67-2.85-4.54-4.94-.86-2.1-.62-4.77,1.04-6.32,1.43-1.33,3.53-1.57,5.44-1.97,6.92-1.42,13.19-5.77,16.95-11.76,1-1.59,1.86-3.33,3.28-4.56,5.41-4.71,13.9.74,20.9-.8-.03-2.53-.08-5.13-1.06-7.46-.99-2.32-3.14-4.34-5.66-4.38-3-.05-6.56,2.41-8.58.19-1.15-1.26-.88-3.39-2.08-4.6-1.65-1.69-4.94-.51-6.57-2.22-1.35-1.41-.56-3.89.97-5.08,1.54-1.19,3.54-1.54,5.38-2.16,5.24-1.79,9.47-6.28,10.95-11.6-10.13-9.51-20.9-18.05-32.22-25.59-8.31-5.53-16.92-10.53-25.77-14.97-33.37-16.74-70.3-25.58-108.57-25.58-8.79,0-17.5.47-26.12,1.39-7.42.98-14.82,2.16-22.17,3.41-.06.01-.11.02-.17.03-32.14,6.51-62.51,19.48-89.63,38.28-1.88,1.97-3.67,4.01-5.37,6.13,1.19,1.71,3.14,2.88,5.13,3.47,4.5,1.32,9.01,2.64,13.51,3.96,6.58,1.93,13.26,3.87,20.12,4,1.31.02,2.69-.04,3.81-.73s1.82-2.21,1.2-3.37c-5.34-.3-10.65-1.1-15.84-2.39-.55-1.67,2.65-2.28,2.95-4.01.21-1.23-1.12-2.11-2.28-2.55-3.68-1.38-7.71-1.82-11.6-1.27,1.03-1.34,2.72-1.95,4.29-2.56,3.87-1.49,7.63-3.35,11.65-4.35,4.03-1,8.49-1.07,12.14.9,1.75.94,3.24,2.31,4.99,3.25,3.28,1.76,7.23,1.87,10.86,1.08,3.63-.8,7.01-2.43,10.36-4.05.22,1.6.26,3.23.11,4.84-.12,1.28-.46,2.71-1.56,3.36-.72.42-1.59.41-2.43.42-3.06.03-6.13.4-9.11,1.1-2.73.64-5.92,2.21-5.95,5.02-.02,2.5,2.58,4.2,4.99,4.85,4.11,1.13,8.63.65,12.42-1.3,2.6-1.34,5.02-2.12,7.83-2.96,1.59-.47,3.38-.97,4.21-2.41,1.6-2.8-1.85-6.11-1.41-9.31,3.79-2.02,8.31-2.64,12.5-1.71.46.1.96.25,1.24.63.58.79-.12,1.83-.7,2.61-1.58,2.13-2.45,4.79-2.42,7.44,0,.86.12,1.77.67,2.43.48.59,1.23.89,1.96,1.12,1.78.56,3.66.84,5.53.81.66-.01,1.35-.07,1.89-.45,1.09-.77.99-2.37,1.11-3.7.32-3.89,3.41-7.12,6.97-8.74,3.55-1.63,7.54-1.94,11.44-2.24,8.5-.64,15.7,3.8,23.25,7.76,1.01.53,2.04,1.11,2.72,2.02.83,1.11,1.03,2.59,1.79,3.76,1.87,2.91,6.63,3.34,7.69,6.63.09.26.14.54.06.79-.15.43-.61.64-1.04.79-5.08,1.86-10.49,2.97-15.21,5.64-2.72,1.53-5.53,3.65-8.61,3.15-2.09-.34-3.78-1.82-5.34-3.25-.48-.44-.98-.9-1.21-1.51-.64-1.73,1.2-3.38,2.94-4.01,1.74-.62,3.81-1,4.76-2.58.92-1.54.28-3.64-1.03-4.85-1.32-1.21-3.13-1.71-4.9-2-6.55-1.06-13.48.34-19.12,3.85-1.48.93-2.93,2.01-4.63,2.41-1.36.32-2.8.18-4.18.41-1.39.23-2.85,1.01-3.2,2.37-.41,1.6.88,3.18.79,4.83-.08,1.74-1.8,3.11-3.54,3.19s-3.4-.88-4.56-2.18c-.57-.63-1.05-1.35-1.77-1.79-1.56-.94-3.57-.23-5.15.67-1.57.91-3.2,2.04-5.01,1.91-2.7-.21-4.82,1.52-6.79,3.38-2.11,2.01-4.5,3.72-7.08,5.08-3.85,2.02-8.49,3.61-10.28,7.57-.18.4-.33.86-.21,1.28.11.38.4.66.69.93,3.22,3.06,6.57,6.19,10.75,7.73,1.99.74,4.13,1.09,6.07,1.96,1.94.87,3.76,2.45,4.11,4.55.5,3-2.05,6.3-.49,8.9,1.31,2.18,4.69,2.05,6.74.56,2.05-1.5,3.23-3.87,4.75-5.9,2.44-3.26,5.91-5.74,9.79-7,1.89-.61,4.02-1.04,5.26-2.59.55-.69.86-1.54,1.1-2.38.76-2.61.98-5.34,1.72-7.95.74-2.61,2.13-5.21,4.51-6.51,2.31-1.26,5.09-1.09,7.7-.89.99.08,2.03.17,2.89.67,2.61,1.53,2,5.55,3.66,8.09,1.16,1.79,3.37,2.66,5.5,2.72,2.12.07,4.21-.54,6.24-1.14,1.44-.43,2.34-.66,3.73-1.21.57-.22,1.17-.45,1.77-.34,1.23.21,1.82,1.7,1.72,2.95-.09,1.25-.63,2.44-.64,3.69-.02,2.97,2.72,5.1,5.09,6.9,2.36,1.79,4.85,4.45,4.06,7.31-1.09,3.93-7.51,4.75-7.97,8.81,2.04,1.62,4.07,3.25,6.11,4.87,1.12.9,2.38,2.2,1.9,3.56-3.07,1.25-6.45-.54-9.27-2.27-.61-.38-1.23-.77-1.67-1.33-1.19-1.56-.58-3.76-.36-5.7.22-1.95-.62-4.53-2.58-4.49-1.15.02-2.02.98-2.89,1.73-1.2,1.03-2.63,1.78-4.16,2.17-.96.25-2.07.32-2.84-.3-.39-.32-.64-.78-.92-1.21-1.37-2.11-3.75-3.54-6.27-3.75-2.51-.21-5.1.8-6.81,2.66-1.88-.13-2.9,2.4-1.7,3.85.91,1.09,2.55,1.18,3.75,1.95,1.37.86,2.05,2.68,1.59,4.23-2.65-.31-5.29-.63-7.94-.95-1.05-.12-2.13-.25-3.17-.02-1.33.29-2.47,1.14-3.55,1.97-8.46,6.53-16.42,13.69-24.36,20.83-2.11,1.9-4.26,3.84-5.67,6.3-1.35,2.34-2.38,5.42-5.02,6.02-.44,4.46-2.9,8-5.35,11.75-.96,1.47-1.93,2.95-3.17,4.18-1.85,1.83-4.21,3.03-6.22,4.67-2.89,2.37-5.01,5.66-5.97,9.27-.6,2.29-.76,4.69-1.62,6.88-.87,2.2-2.72,4.25-5.08,4.37-2.1.1-4.02-1.38-5.1-3.19-1.08-1.81-1.51-3.92-2.04-5.96-.22-.82-.52-1.73-1.28-2.12-.44-.23-.95-.24-1.45-.25-6.03-.07-12.07-.13-18.1-.2-2.37-.03-4.77-.05-7.07.53-3.53.9-6.55,3.15-9.45,5.35-2.46,1.86-4.89,3.57-6.37,6.27-2.03,3.73-3.85,7.56-5.47,11.48-.6,1.46-1.18,2.96-1.28,4.54-.31,4.68,3.87,8.78,8.47,9.69,4.61.92,9.36-.69,13.46-2.96,4.1-2.27,7.82-5.22,12-7.33.81-.41,1.78-.78,2.57-.36.46.24.75.71.95,1.18,1.22,2.89-.52,6.15-2.41,8.65-1.9,2.5-4.14,5.15-4.04,8.29,4-.6,8.41.22,12.04,1.98.75.36,1.53.82,1.89,1.58.46.94.15,2.04-.07,3.06-1.04,4.62-.22,9.62,2.24,13.67.74,1.21,1.64,2.37,2.85,3.1.97.59,2.09.89,3.2,1.15,4.42,1.07,8.93,1.79,13.46,2.17,2.05-2.23,4.13-4.48,6.18-6.71,1.9-2.07,3.83-4.17,6.2-5.69,2.37-1.52,5.27-2.42,8.03-1.86,5.24,1.07,8.23,6.79,13.15,8.88,3.63,1.55,7.9.88,11.41-.9,1.34-.68,2.67-1.53,4.17-1.58,1.76-.05,3.33,1.02,4.77,2.04,2.85,2.03,5.96,4.5,6.27,7.99.36,3.97,3.83,7.61,7.57,8.99,2.77,1.03,5.81.98,8.73,1.46,2.92.47,6,1.67,7.42,4.26,1.88,3.43.15,7.75,1.11,11.54.74,2.97,3.12,5.32,5.83,6.75,2.71,1.42,5.76,2.05,8.77,2.61,8.08,1.51,16.21,2.71,24.38,3.61.57.06,1.15.12,1.67.35,1.25.53,1.96,1.83,2.66,3,2.14,3.6,5.06,6.73,8.51,9.11.79.55,1.63,1.08,2.25,1.81,1.19,1.4,1.46,3.4,1.11,5.2-.36,1.79-1.27,3.43-2.23,4.98-1.63,2.6-3.02,5.31-4.7,7.88-3.54,5.39-4.47,12-5.93,18.28-1.46,6.28-3.84,12.86-9.14,16.52-2.67,1.86-5.86,2.79-8.99,3.69-2.22.65-4.45,1.29-6.68,1.94-.86.25-1.75.52-2.38,1.14-.71.7-.97,1.72-1.2,2.68-.59,2.45-1.18,4.9-1.76,7.35-1.59,6.58.86,14.18-3.39,19.46-2.09,2.6-4.92,4.51-7.25,6.91-1.93,1.98-3.51,4.28-5.31,6.37-5.31,6.16-12.53,10.43-20.06,13.48-1.2.48-2.44.96-3.39,1.83-2.2,2-2.08,5.98.24,7.84.55.45,1.38.54,1.88,1.04s.77,1.32.42,1.94c-.19.34-.52.57-.83.79-1.84,1.32-3.52,3.38-3.16,5.61.32,1.9,2.04,3.26,3.81,4.05,1.76.8,3.7,1.23,5.32,2.29.38.25.76.55.97.96.21.42.24.91.24,1.38.05,3.04-.25,6.09-.9,9.07-.31,1.46-.72,2.92-.71,4.42.01,1.5.5,3.07,1.67,4.01-.5.07,6.83,2.11,7.17,5.37.03.31.02.63-.12.9-.24.43-.76.59-1.24.72-2.87.77-5.88,1.55-8.77.86-1.68-.4-3.21-1.27-4.68-2.17-5-3.05-9.83-6.6-13.25-11.35-2.73-3.79-4.45-8.2-6.14-12.55-2.66-6.82-5.36-13.88-5.09-21.2.1-2.57.55-5.22-.24-7.67-.35-1.08-.94-2.07-1.51-3.05-.94-1.58-1.88-3.17-2.81-4.75-.68-1.15-.77-2.06-.84-3.39-.12-2.52-.06-5.24.73-7.64.84-2.56,2.34-5.35,1.16-7.77-.46-.93-1.25-1.64-1.88-2.45-1.67-2.14-2.19-4.94-2.54-7.63-.86-6.75-.88-13.59-.89-20.4-.01-.9.06-1.95.78-2.49.22-2.63.35-5.21.3-7.84-.04-2.01-.27-4.12-1.43-5.76-.89-1.25-2.24-2.09-3.55-2.89-3.27-2.02-6.55-4.03-9.82-6.04-2.12-1.3-4.26-2.62-5.95-4.43-.88-.94-1.63-2-2.38-3.04-4.47-6.29-9.09-12.48-13.85-18.56-3.06-3.93-5.18-8.51-6.13-13.4-.96-4.89-.22-10.27,2.81-14.23,1.64-2.15,3.85-3.77,5.85-5.59,2.01-1.81,3.88-3.96,4.51-6.59.56-2.36.04-4.83-.47-7.2-.57-2.66-1.15-5.31-1.72-7.97-.06-.27-.13-.57-.35-.75-.18-.16-.44-.21-.68-.24-1.89-.3-3.79-.59-5.68-.88-4.73.29-9.12-1.61-13.41-3.61-1.13-.53-2.27-1.06-3.25-1.83-1-.79-1.8-1.8-2.59-2.8-2.45-3.11-4.89-6.21-7.34-9.32-4.99-1.79-9.5-2.9-14.49-4.69-1.01-.36-2.13-.83-2.5-1.84-.38-1.05.19-2.39-.53-3.24-.42-.49-1.12-.61-1.75-.7-1.27-.17-2.55-.34-3.82-.51-1.07-.15-2.33-.23-3.08.55-.32.34-.5.79-.84,1.1-.74.66-1.9.42-2.85.12-6.5-2.04-12.89-4.45-19.13-7.22-1.24-.55-2.51-1.15-3.4-2.17-1.25-1.45-1.52-3.48-1.73-5.39-.39-3.45-.75-7.05.49-10.29,1.06-2.76-2.15-4.93-3.91-7.32-5.2-7.09-6.9-16.06-9.75-24.37-.65-1.9-1.73-4.08-3.72-4.31-1.99-.23-3.6,1.73-4.11,3.67-.33,1.24-.39,2.54-.26,3.81.34,3.39,1.95,6.5,3.53,9.52,1.21,2.32,2.43,4.64,3.64,6.96.92,1.76,1.85,3.53,3.02,5.13.4.55.84,1.09,1.06,1.73.56,1.65-.77,3.65-2.5,3.78-.96.07-1.88-.34-2.74-.77-1.86-.94-3.67-2.05-5.05-3.62-1.57-1.77-2.48-4.01-3.36-6.21-1.16-2.87-2.32-5.76-3.13-8.75-1.05-3.88-1.49-7.92-1.32-11.94.06-1.38.17-2.84-.5-4.05-.35-.64-.9-1.16-1.45-1.64-1.05-.92-2.15-1.8-3.28-2.61-3.05-2.21-5.46-4.78-7.7-7.76-6,16.37-10.32,33.42-12.86,50.91-1.78,12.28-2.69,24.78-2.69,37.43v.07c.01,49.04,13.68,95.94,39.17,136.16,8.08,12.78,17.36,24.88,27.78,36.16,1.72,1.87,3.48,3.71,5.26,5.53,46.56,47.52,108.45,73.69,174.29,73.69s127.73-26.17,174.29-73.69c5.14-5.25,10.03-10.69,14.66-16.3-.66-.35-1.26-.83-1.71-1.4-1.36-1.73-1.75-4.01-2.09-6.18-.46-2.89-.92-5.78-1.38-8.66-.23-1.5-.48-3.02-1.18-4.36-.85-1.6-2.28-2.81-3.33-4.29-4.08-5.74-1.58-13.83-3.78-20.52-2.13-6.47-8.6-11.44-8.63-18.25-.02-4.63,3-8.62,4.81-12.88,2.29-5.38,2.65-11.55,1.01-17.16-3.08-10.54-12.87-19.13-12.42-30.1.15-3.74,1.11-8.47-2.09-10.42-1.23-.75-2.75-.79-4.2-.8-13.53-.14-27.07-.28-40.61-.42-8.75-.09-18.62-.66-24.38-7.24-5.01-5.71-12.01-9.44-16.56-15.51-1.57-2.11-3.09-4.31-3.96-6.79-1.02-2.9-1.1-6.05-1.17-9.13-.18-7.27-.35-14.53-.52-21.8-.07-3.15-.12-6.44,1.28-9.26,1.42-2.88,4.14-4.87,6.76-6.73,3.94-2.81,7.88-5.61,11.81-8.41,4.05-2.88,8.56-6.69,8.15-11.64-.13-1.54-.74-3.03-.72-4.57.08-4.71,5.56-7.12,10.1-8.39,5.95-1.67,11.9-3.33,17.85-5,10.48-2.93,21.11-5.89,32-6.06,5.72-.1,12.75,1.65,14.08,7.21.57,2.38-.03,5.18,1.52,7.07.71.86,1.75,1.36,2.77,1.82,4.8,2.14,9.8,3.8,14.92,4.97,1.08.25,2.22.47,3.26.1,1.61-.56,2.43-2.27,3.5-3.59,3.74-4.59,10.91-4.43,16.42-2.27,5.5,2.15,10.4,5.85,16.14,7.26,2.23.55,4.95.58,6.41-1.19,1.82-2.19.45-5.61-1.62-7.57Zm-112.49-82.82c1.27-.81,2.76-1.2,4.21-1.58,1.55-.4,3.12-.81,4.72-.88.87,5.63,2.82,11.08,5.71,15.99,1.38,2.34,3.12,4.67,5.63,5.72.54.22,1.12.39,1.52.8.11.1.21.24.22.39.01.16-.07.3-.15.43-1.57,2.65-4.03,4.86-7,5.69-1.46.41-3,.47-4.52.53-1.87.08-3.74.15-5.61.23-.55.02-1.11.04-1.64-.12-.91-.28-1.6-1.08-1.9-1.99-.29-.9-.59-2.07,0-2.81,1.6-1.99.6-.99,2.6-2.99.92-.46,2.23-1.27,2.83-2.11.45-.64.41-1.5.35-2.29-.03-.48-.07-.97-.23-1.43-.18-.5-.49-.94-.85-1.33-1.41-1.55-3.43-2.39-5.17-3.56-1.74-1.17-3.36-3-3.18-5.09.13-1.5,1.18-2.8,2.46-3.6Zm-15.91,20.31c.28-.8.56-1.61.85-2.42.42-1.2.84-2.41,1.5-3.5,1.28-2.13,3.45-3.71,5.87-4.27,2.42-.56,5.05-.1,7.14,1.24.42.27.84.59,1.04,1.05.17.39.17.84.16,1.26-.01,1.25-.04,2.54-.62,3.64-.72,1.37-2.15,2.2-3.5,2.94-.75.41-1.49.82-2.23,1.23-2.03,1.12-4.16,2.27-6.48,2.34-2.58.08-4.79-.48-3.73-3.51Zm-135.54,28.01c-.09.14-.23.23-.37.32-1.1.68-2.26,1.28-3.46,1.78-.18.08-.37.15-.55.09-.1-.03-.19-.1-.27-.17-.35-.29-.72-.61-.82-1.05-.07-.35.03-.71.14-1.05.32-1.03.65-2.07.97-3.1.29-.93,1.43-2.04,2.51-1.47.51.27.75,1.02.98,1.5.33.73.62,1.47.86,2.24.09.3.18.64.01.91Zm19.9-7.18c-.14.55-.68.86-1.16,1.16-.5.32-.98.7-1.41,1.11-1.33,1.28-2.29,2.98-3.9,3.87-.58.32-1.22.52-1.78.87-.48.29-.89.69-1.41.92-.96.42-2.12.15-2.98-.45-.97-.68-1.96-1.92-2.41-3.01-.43-1.05.66-2.23,1.6-2.56.89-.31,1.88-.13,2.82-.3.7-.12,1.36-.44,2-.76.4-.2.8-.4,1.11-.72.2-.21.36-.47.55-.69.52-.61,1.29-.96,2.08-1.11.78-.15,1.59-.12,2.39-.09.59.02,1.2.05,1.72.32.52.28.93.87.78,1.44Z"/>
    <path d="m571.88,317.12c.45-5.17.76-10.34.92-15.56-1,5.08-1.31,10.33-.92,15.56Z"/>
    <path d="m567.3,346.09c.01,4.5-1.58,8.12-4.53,10.4-2.19,1.71-5.14,2.68-8.75,2.74-15.2.27-30.4.26-45.6.03-8.92-.14-14.02-6.03-14.04-15.6-.05-27.04-.02-54.08-.02-81.12,0-4.09-.04-8.19.01-12.28.13-10.04,5.52-15.49,15.49-15.54,14.03-.06,28.06-.13,42.09.03,10.85.12,16.78,8.03,13.63,17.79-1.76,5.45-6.17,8.35-13.41,8.46-8.18.12-16.37.03-24.55.03h-4.67v21.95c8.24,0,16.25-.06,24.25.03,2.46.03,4.99.19,7.37.75,6.09,1.45,9.28,5.98,9.22,12.61-.06,6.36-3.25,10.95-9.25,12.1-4.11.79-8.41.72-12.63.81-6.24.11-12.49.03-18.97.03v23.7h4.7c8.77,0,17.54-.19,26.31.08,6.01.17,10.14,2.6,12.08,6.74.84,1.78,1.27,3.88,1.27,6.26Z"/>
    <path d="m599.24,415.41c-6.05-20.09-19.98-33.82-38.6-38.93-.96-.26-1.93-.5-2.92-.72-4.31-.95-8.86-1.45-13.61-1.49-10.52-.07-21.05-.02-31.58-.01-11.11.02-16.38,5.27-16.4,16.4-.04,15.36-.01,30.71-.01,46.06s-.07,31.29.03,46.94c0,.62.03,1.23.08,1.81.11,1.34.33,2.59.67,3.73,1.82,6.22,6.91,9.62,14.61,9.67,11.11.07,22.23.15,33.34-.01,24.38-.35,44.37-14.08,52.76-36.56,5.73-15.37,6.38-31.13,1.63-46.89Zm-30.63,38.85c-4.18,10.98-12.68,16.98-24.24,18.06-6.36.59-12.82.1-19.57.1v-71.68c7.12,0,14.03-.56,20.8.13,1.08.11,2.13.26,3.15.46,1.02.19,2,.43,2.95.71,8.24,2.45,14.21,8.16,17.37,17.08,4.15,11.72,3.93,23.58-.46,35.14Z"/>
    <path d="m912.19,418.98c-.02-6.39-3.54-11.33-9.02-13.16-5.95-1.98-11.48-.21-15.55,5-.52.66-1.03,1.32-1.12,1.45-5.53-2.87-10.35-6.6-15.76-7.92-13.27-3.24-25.21.5-35.16,9.85-16.23,15.25-20.36,42.93-9.78,64.18,11.42,22.91,39.46,28.52,58.92,11.36.65,14.69-5.77,22.22-19.77,23.54-2.02.19-4.21.45-6.1-.1-6.67-1.96-13.31-4.09-19.84-6.48-6.35-2.33-11.42-1.11-15.04,4.14-3.45,5.01-2.91,10.97,2.06,15.38,2.78,2.47,6.13,4.58,9.58,5.97,12.6,5.09,25.77,6.52,39.15,4.21,20.14-3.48,32.73-14.94,36.11-33.75,1.46-8.11,1.23-16.58,1.3-24.89.16-19.59.09-39.19.02-58.78Zm-29.94,46.22c-2.91,7.03-8.7,10.49-16.22,10.45-7.35-.03-12.92-3.54-15.97-10.28-3.73-8.23-3.92-16.69-.22-25,3.04-6.84,8.32-10.7,16.02-10.81,7.87-.1,13.49,3.6,16.5,10.68,1.62,3.8,2.21,8.04,3.3,12.27-1.13,4.36-1.77,8.73-3.41,12.69Z"/>
    <path d="m793.71,279.75c-.21,6.32-3.65,10.34-10.07,11.25-3.73.53-7.53.56-11.85.86v4.75c0,16.09.02,32.18-.01,48.27-.01,9.11-5.31,15.14-13.33,15.31-8.12.17-13.89-6.04-13.93-15.26-.07-16.09-.02-32.18-.02-48.27v-3.99c-4.86-1.44-9.11-2.72-13.39-3.95-.5-.14-1.14-.14-1.63.03-5.78,2.02-11.61,3.93-17.3,6.2-7.08,2.82-8.7,9.01-8.78,15.77-.13,11.84.05,23.69-.11,35.54-.13,10.13-9.27,16.51-18.51,12.96-5.86-2.26-8.63-7.03-8.67-13.04-.15-22.23-.14-44.46-.01-66.69.04-6.71,3.79-11.57,9.49-13.32,5.99-1.83,12.04.1,16.06,5.14.52.65,1.02,1.32,1.11,1.45,5.63-2.99,10.74-6.38,16.34-8.39,2.75-.99,6.99-.34,9.55,1.22,3.27,1.99,6,1.92,9.3,1.11,1.95-.48,4.03-.41,6.56-.64,0-5.98-.18-11.94.04-17.89.38-10.26,8.69-16.47,17.87-13.57,5.53,1.75,9.17,6.69,9.33,12.97.16,5.99.15,11.98.23,17.97,0,.11.18.22.36.41,3.95.34,8.05.36,12.01,1.1,6.61,1.22,9.6,5.55,9.36,12.7Z"/>
    <path d="m881.32,346.44c-.11,8.26-6.39,14.02-14.04,13.75-7.73-.28-13.11-6.17-13.14-14.59-.06-14.18.1-28.36-.07-42.54-.14-11.79-9.12-18.7-19.92-15.61-6.52,1.86-10.5,7.71-10.55,15.93-.08,14.32.08,28.65-.07,42.98-.11,10.09-9.34,16.35-18.59,12.86-5.39-2.03-8.61-7.07-8.64-13.98-.07-13.74-.02-27.48-.02-41.22,0-21.35-.02-42.69.01-64.04.02-7.49,3.18-12.74,8.75-14.84,9.18-3.45,18.32,2.89,18.48,13.05.17,10.52.04,21.04.04,31.36,6.24-1.87,11.95-4.54,17.87-5.11,6.39-.6,13.22-.18,19.41,1.45,12.73,3.37,20.01,13.42,20.4,27.92.46,17.53.3,35.09.08,52.63Z"/>
    <path d="m663.74,278.18c-.04-5.75-4-10.36-9.31-12-5.53-1.7-10.84-.13-14.59,4.35-.82.98-1.56,2.02-1.66,2.16-5.66-2.86-10.61-6.62-16.15-7.94-13.47-3.2-25.46.8-35.38,10.43-7.23,7.01-11.88,16.33-13.85,26.36-.01,0-.01.01,0,.02-1,5.08-1.31,10.33-.92,15.56-.01,0-.01.02,0,.03.63,8.41,3.08,16.74,7.4,24.14,12.06,20.63,41.71,28.7,58.23,10.7.79,1.06,1.51,2.12,2.33,3.11,3.72,4.48,9.05,6.06,14.58,4.37,5.33-1.64,9.28-6.25,9.32-11.99.15-23.1.15-46.2,0-69.3Zm-30.68,48.51c-3.02,6.08-8.46,8.98-15.36,8.95-6.91-.02-12.12-3.09-15.33-9.09-4.65-8.66-4.78-17.66-.57-26.48,3.14-6.58,8.57-10.1,16.06-10.06,7.5.03,12.94,3.56,15.9,10.25,1.73,3.91,2.37,8.29,3.66,13.08-1.38,4.38-2.28,9.16-4.36,13.35Z"/>
    <path d="m684.36,468.95c-2.84,1.14-5.62,2.45-8.37,3.79-6.65,3.25-13.66,4.07-20.93,3.23-9.49-1.09-15.36-6.31-16.19-14.82,15.7,0,31.04.02,46.38-.02,2.62,0,5.28-.09,7.86-.51,5.69-.93,8.23-3.69,8.36-9.46.08-3.77-.18-7.61-.85-11.32-4.22-23.69-26.12-39.54-49.64-36.09-24.86,3.64-42.54,24.91-41.62,50.07.82,22.39,13.17,39.82,32.81,45.38,16.51,4.67,32.49,2.3,47.51-5.66,3.45-1.83,6.49-5.02,8.82-8.24,2.95-4.08,1.95-10.31-1.27-13.85-3.19-3.51-7.94-4.49-12.87-2.5Zm-27.83-42.67c8.74,0,17.18,7.63,17.4,15.93h-34.79c.28-8.42,8.63-15.94,17.39-15.93Z"/>
    <path d="m1013.52,282.03c-.51,2.41-1.23,4.83-2.21,7.09-14.05,32.72-28.14,65.41-42.29,98.09-1.99,4.61-4.35,8.87-9.95,10.22-11.2,2.68-20.14-5.97-16.5-16.86,3.05-9.1,7.29-17.81,11.26-26.58,1.2-2.65,1.16-4.77.03-7.41-8.58-20.14-17.08-40.31-25.41-60.55-1.24-3.01-2.16-6.52-1.93-9.7.38-5.25,3.77-8.69,8.92-10.18,5.55-1.6,10.57-.55,14.4,3.75,1.89,2.12,3.23,4.87,4.29,7.54,5.13,12.87,10.08,25.8,15.57,39.92,4.84-11.71,9.15-22.37,13.64-32.95,1.82-4.28,3.67-8.63,6.14-12.55,3.96-6.32,10.09-7.96,16.73-5.11,5.7,2.44,8.74,8.64,7.31,15.28Z"/>
    <path d="m1009.53,484.71c-.05,8.95-5.71,15.04-13.7,15.04s-13.54-6.1-13.56-15.06c-.04-14.03.11-28.06-.06-42.09-.14-11.78-9.13-18.69-19.92-15.6-6.52,1.86-10.5,7.71-10.55,15.93-.08,14.32.08,28.65-.07,42.97-.11,9.93-8.97,16.19-18.15,12.97-5.96-2.08-8.94-6.76-8.99-12.75-.2-22.51-.18-45.02-.01-67.52.05-6.47,3.89-11.16,9.44-12.87,5.99-1.84,12.04.09,16.05,5.12.62.78,1.22,1.58,1.85,2.4,11.88-12.51,35-13.45,47.89-2.09,7.25,6.38,9.66,14.81,9.75,24,.16,16.52.11,33.03.03,49.55Z"/>
    <path d="m765.12,494.39c-7.08,4.99-15.03,6.88-23.81,7.09-9.87-.59-19.82-1.98-28.47-7.91-4.79-3.29-7.55-7.62-6.38-13.79,1.51-7.98,7.8-11.88,15.58-9.29,3.31,1.1,6.33,3.1,9.66,4.07,4.28,1.24,8.72,2.39,13.12,2.47,1.89.04,5.07-2.5,5.41-4.28.33-1.81-1.69-4.72-3.48-6.09-2.37-1.79-5.52-2.55-8.34-3.74-4.98-2.09-10.06-3.95-14.91-6.31-14.55-7.08-19.06-21.13-11.6-35.57,3.04-5.9,7.51-10.49,13.45-13.37,14.33-6.94,28.33-5.48,41.77,2.5,4.79,2.84,7.59,7.16,7.38,13.05-.27,7.62-7.05,12.61-14.31,10.22-4.14-1.37-8.02-3.57-12.2-4.8-2.83-.83-6.04-1.11-8.93-.66-1.54.24-3.6,2.39-3.89,3.96-.28,1.55.9,4.17,2.26,5.07,3,1.97,6.51,3.19,9.84,4.65,5.21,2.28,10.64,4.12,15.63,6.79,20.38,10.91,16.4,35.96,2.22,45.94Z"/>
    <path d="m920.89,344.88c-.02,7.18-3.23,12.32-8.73,14.37-8.87,3.3-17.96-2.6-18.49-12.12-.2-3.64-.06-7.3-.06-10.95,0-32.45-.03-64.89.03-97.33.02-10.59,8.75-17.09,18.25-13.79,5.72,2,8.98,7.16,9,14.6.04,17.54.02,35.07.02,52.61s.03,35.07-.02,52.61Z"/>
    <path d="m812.03,485.18c-.05,8.62-5.88,14.59-13.71,14.57-7.86-.03-13.48-6.05-13.52-14.66-.06-10.96-.02-21.92-.02-32.88s-.04-21.62.02-32.44c.04-8.67,5.52-14.66,13.39-14.78,7.82-.11,13.78,5.86,13.83,14.44.14,21.92.13,43.84.01,65.75Z"/>
    <path d="m1040.25,301.56c1.72-4.02,3.09-8.36,4.07-12.92,4.6-21.47-5.97-42.37-25.7-50.84-6.03-2.59-12.26-3.9-18.5-3.9-11.17,0-21.69,4.23-29.8,11.94-5.2-4.83-11.41-8.35-18.1-10.24-1.42-18.93-12.83-34.3-29.99-40.29-4.98-1.73-10.13-2.61-15.3-2.61-23.39,0-42.27,17.64-44.56,41.31-2.49-.44-5.06-.78-7.66-1-2.62-23.07-21.57-40.31-44.59-40.31-5.52,0-10.96.99-16.19,2.96-6.43,2.43-12,6.13-16.59,11.01-1.76-.81-3.57-1.52-5.42-2.09-4.56-1.46-9.27-2.19-14-2.19-19.51,0-36.01,11.94-42.3,30.51-2.46.39-4.88,1-7.18,1.82-1.32.48-2.67,1.01-4.03,1.59-8.99-2.98-18.84-3.07-28.07-.25-2.18.67-4.32,1.5-6.36,2.48-2.02-.97-4.14-1.8-6.31-2.48-9.06-2.78-18.63-2.74-27.47.2-2.35-.91-4.62-1.62-6.9-2.16-11.18-2.66-22.64-2.56-33.33.3-1.37-4.48-3.46-8.69-6.21-12.52-6.99-9.71-17.61-16.04-29.87-17.99-13.59-44.12-37.52-84.57-70.53-118.24C435.22,30.42,363.17,0,286.49,0S137.76,30.42,83.62,85.65C29.7,140.66,0,213.73,0,291.42s29.7,150.76,83.62,205.77c54.14,55.23,126.19,85.64,202.87,85.64,69.48,0,135.15-24.97,187.15-70.74,8.3,11.24,21.7,18.18,37.66,18.28h1.17c6.01.05,12.03.08,18.04.08,5.4,0,10.23-.03,14.78-.09,21.06-.31,40.28-7.21,55.7-19.99,8.97,9.03,20.21,15.64,32.59,19.14,8.37,2.37,16.92,3.57,25.4,3.57,14.23,0,28.33-3.34,41.91-9.92,13.38,7.35,26.96,9.07,38.51,9.76l1.33.09,1.32-.03c12.93-.32,24.08-3.08,34.08-8.44,2.45-1.31,4.85-2.79,7.13-4.4,2.54-1.78,4.94-3.78,7.18-5.98-.4,5.31.19,10.68,1.77,15.78,2.34,7.57,6.8,14.43,12.88,19.83,5.5,4.89,11.97,8.91,18.71,11.63,12.44,5.02,25.42,7.57,38.58,7.57,5.92,0,11.89-.52,17.74-1.53,24.33-4.21,43.43-17.13,53.89-36.42,1.43.14,2.89.21,4.37.21,10.53,0,20.63-3.64,28.57-10.28,8.01,6.74,17.96,10.3,28.87,10.3,12.82,0,24.56-5.11,33.05-14.39,7.77-8.47,12.09-19.83,12.15-32,.08-15.15.14-32.76-.03-50.01-.24-24.46-11.24-39.24-20.43-47.33-4.02-3.54-8.55-6.56-13.47-8.98,4.63-10.73,9.45-21.89,14.84-34.4,5.39-12.52,11.36-26.39,18.32-42.58Zm-35.74,79.07c5.17,2.4,9.91,5.47,14.07,9.14,8.73,7.69,19.18,21.76,19.41,45.11.17,17.23.11,34.83.03,49.97-.06,11.41-4.09,22.06-11.36,29.98-7.91,8.65-18.87,13.42-30.84,13.42-10.62,0-20.26-3.6-27.86-10.4l-1-.89-1,.88c-7.54,6.7-17.33,10.39-27.58,10.39-1.71,0-3.41-.1-5.04-.3l-1.03-.13-.48.92c-10.05,19.22-28.11,31.59-52.23,35.76-5.68.99-11.47,1.49-17.22,1.49-12.78,0-25.38-2.48-37.46-7.35-6.42-2.6-12.59-6.43-17.84-11.09-5.67-5.04-9.82-11.43-12.01-18.48-1.89-6.14-2.26-12.72-1.06-19.02l1.05-5.47-3.65,4.2c-2.95,3.39-6.27,6.4-9.88,8.93-2.18,1.54-4.47,2.96-6.81,4.2-9.58,5.14-20.29,7.78-32.75,8.09l-1.18.03-1.2-.08c-11.41-.69-24.84-2.39-37.91-9.77l-.69-.39-.71.35c-13.39,6.61-27.29,9.96-41.3,9.96-8.21,0-16.48-1.17-24.58-3.46-12.32-3.49-23.46-10.17-32.23-19.33l-.98-1.03-1.08.93c-15.05,12.89-34.02,19.87-54.86,20.17-4.53.06-9.36.09-14.74.09-6.01,0-12.01-.03-18.02-.07h-1.17c-15.04-.11-27.65-6.69-35.4-17.32-.59-.81-1.16-1.66-1.69-2.52-.76.69-1.52,1.37-2.29,2.06-51.5,45.44-116.59,70.23-185.45,70.23-75.87,0-147.15-30.09-200.73-84.74C32.39,440.64,3,368.31,3,291.42s29.39-149.23,82.76-203.67C139.34,33.1,210.62,3,286.49,3s147.15,30.1,200.73,84.75c32.34,32.99,55.88,72.55,69.4,115.72.33,1.04.65,2.08.96,3.13,1.11.13,2.2.3,3.28.51,10.85,2.07,20.23,7.86,26.46,16.52,2.84,3.95,4.92,8.32,6.17,13.01l.4,1.48,1.47-.43c10.61-3.11,22.07-3.33,33.24-.67,2.31.55,4.61,1.28,7.02,2.23l.51.21.53-.19c8.39-2.9,17.5-2.99,26.12-.34,2.26.7,4.45,1.58,6.53,2.62l.67.33.67-.33c2.09-1.04,4.3-1.92,6.57-2.62,8.81-2.7,18.22-2.55,26.77.4l.55.2.54-.24c1.47-.64,2.94-1.23,4.37-1.74,2.4-.86,4.92-1.47,7.51-1.82l.94-.12.29-.91c5.65-17.81,21.25-29.31,39.73-29.31,4.42,0,8.82.69,13.1,2.05,2.06.64,4.08,1.46,6.01,2.41l1.03.51.76-.85c4.4-4.94,9.84-8.65,16.17-11.04,4.88-1.84,9.97-2.77,15.13-2.77,21.87,0,39.81,16.69,41.72,38.84l.11,1.27,1.28.09c3.5.25,6.93.71,10.2,1.37l1.69.34.11-1.72c1.43-22.91,19.36-40.19,41.7-40.19,4.83,0,9.65.82,14.31,2.44,16.57,5.78,27.05,20.25,28.05,38.71l.06,1.1,1.07.27c7.04,1.8,13.56,5.53,18.85,10.78l1.07,1.06,1.06-1.07c7.67-7.8,17.87-12.09,28.72-12.09,5.83,0,11.66,1.23,17.32,3.65,18.39,7.9,28.24,27.42,23.94,47.46-.94,4.37-2.25,8.53-3.89,12.36-14.2,33.04-24.29,56.46-33.73,78.3l-.58,1.34,1.33.62Z"/>
  </g>
</svg>